<svg width="1200" height="700" viewBox="0 0 1200 700" xmlns="http://www.w3.org/2000/svg" role="img" aria-label="Interaction storyboard">
    <rect width="1200" height="700" rx="40" fill="#082f49" />
    <g fill="#0f172a" stroke="#38bdf8" stroke-width="4" stroke-dasharray="12 12">
        <rect x="140" y="120" width="260" height="180" rx="24" />
        <rect x="470" y="120" width="260" height="180" rx="24" />
        <rect x="800" y="120" width="260" height="180" rx="24" />
        <rect x="140" y="360" width="260" height="180" rx="24" />
        <rect x="470" y="360" width="260" height="180" rx="24" />
        <rect x="800" y="360" width="260" height="180" rx="24" />
    </g>
    <text x="200" y="220" font-family="'Inter', sans-serif" font-size="28" fill="#e0f2fe">Browse</text>
    <text x="540" y="220" font-family="'Inter', sans-serif" font-size="28" fill="#e0f2fe">Detail</text>
    <text x="870" y="220" font-family="'Inter', sans-serif" font-size="28" fill="#e0f2fe">Cart</text>
    <text x="200" y="460" font-family="'Inter', sans-serif" font-size="28" fill="#e0f2fe">Review</text>
    <text x="520" y="460" font-family="'Inter', sans-serif" font-size="28" fill="#e0f2fe">Shipping</text>
    <text x="860" y="460" font-family="'Inter', sans-serif" font-size="28" fill="#e0f2fe">Payment</text>
    <path d="M400 210h60" stroke="#fcd34d" stroke-width="8" marker-end="url(#arrow)" />
    <path d="M730 210h60" stroke="#fcd34d" stroke-width="8" marker-end="url(#arrow)" />
    <path d="M400 450h60" stroke="#fcd34d" stroke-width="8" marker-end="url(#arrow)" />
    <path d="M730 450h60" stroke="#fcd34d" stroke-width="8" marker-end="url(#arrow)" />
    <defs>
        <marker id="arrow" markerWidth="10" markerHeight="10" refX="6" refY="3" orient="auto" markerUnits="strokeWidth">
            <path d="M0,0 L0,6 L9,3 z" fill="#fcd34d" />
        </marker>
    </defs>
</svg>
