<svg width="1200" height="700" viewBox="0 0 1200 700" xmlns="http://www.w3.org/2000/svg" role="img" aria-label="Checkout flow diagram">
    <rect width="1200" height="700" rx="40" fill="#041527" />
    <g stroke="#22d3ee" stroke-width="4">
        <rect x="120" y="160" width="220" height="120" rx="24" fill="#0f172a" />
        <rect x="420" y="160" width="220" height="120" rx="24" fill="#0f172a" />
        <rect x="720" y="160" width="220" height="120" rx="24" fill="#0f172a" />
        <rect x="1020" y="160" width="60" height="120" rx="24" fill="#0f172a" />
        <rect x="120" y="360" width="220" height="120" rx="24" fill="#0f172a" />
        <rect x="420" y="360" width="220" height="120" rx="24" fill="#0f172a" />
        <rect x="720" y="360" width="220" height="120" rx="24" fill="#0f172a" />
    </g>
    <text x="160" y="225" font-family="'Inter', sans-serif" font-size="26" fill="#e0f2fe">Browse</text>
    <text x="460" y="225" font-size="26" font-family="'Inter', sans-serif" fill="#e0f2fe">Cart</text>
    <text x="760" y="225" font-size="26" font-family="'Inter', sans-serif" fill="#e0f2fe">Checkout</text>
    <text x="160" y="425" font-size="24" font-family="'Inter', sans-serif" fill="#94a3b8">Auth</text>
    <text x="460" y="425" font-size="24" font-family="'Inter', sans-serif" fill="#94a3b8">Shipping</text>
    <text x="760" y="425" font-size="24" font-family="'Inter', sans-serif" fill="#94a3b8">Payment</text>
    <path d="M340 220h60" stroke="#f472b6" stroke-width="8" marker-end="url(#arrow2)" />
    <path d="M640 220h60" stroke="#f472b6" stroke-width="8" marker-end="url(#arrow2)" />
    <path d="M340 420h60" stroke="#f472b6" stroke-width="8" marker-end="url(#arrow2)" />
    <path d="M640 420h60" stroke="#f472b6" stroke-width="8" marker-end="url(#arrow2)" />
    <defs>
        <marker id="arrow2" markerWidth="10" markerHeight="10" refX="6" refY="3" orient="auto" markerUnits="strokeWidth">
            <path d="M0,0 L0,6 L9,3 z" fill="#f472b6" />
        </marker>
    </defs>
    <text x="200" y="560" font-size="24" font-family="'Inter', sans-serif" fill="#bae6fd">APIs triggered: inventory, pricing, tax, payment intent</text>
</svg>
