<svg width="1200" height="700" xmlns="http://www.w3.org/2000/svg" role="img" aria-label="Editorial calendar">
    <rect width="1200" height="700" rx="40" fill="#0f172a" />
    <rect x="200" y="140" width="800" height="420" rx="30" fill="#1e293b" />
    <rect x="230" y="180" width="740" height="80" rx="20" fill="#475569" />
    <rect x="230" y="280" width="740" height="240" rx="24" fill="#0f172a" />
    <g fill="#f9a8d4">
        <rect x="260" y="310" width="100" height="80" rx="14" />
        <rect x="380" y="310" width="100" height="80" rx="14" />
        <rect x="500" y="310" width="100" height="80" rx="14" />
        <rect x="620" y="310" width="100" height="80" rx="14" />
        <rect x="740" y="310" width="100" height="80" rx="14" />
        <rect x="860" y="310" width="80" height="80" rx="14" />
    </g>
    <g fill="#f472b6">
        <rect x="260" y="410" width="220" height="80" rx="18" />
        <rect x="500" y="410" width="220" height="80" rx="18" />
        <rect x="740" y="410" width="200" height="80" rx="18" />
    </g>
    <text x="260" y="230" font-size="30" font-family="'Inter', sans-serif" fill="#e2e8f0">Editorial calendar sync</text>
</svg>
